<mxfile host="app.diagrams.net" modified="2024-05-01T09:08:12.180Z" agent="Mozilla/5.0 (X11; Linux x86_64; rv:109.0) Gecko/20100101 Firefox/115.0" etag="A7vF3bb442gZ5eyOzOtU" version="24.3.1" type="device">
  <diagram name="PÃ¡gina-1" id="gHQb96KS4q3t2H0Nk5Vd">
    <mxGraphModel dx="874" dy="441" grid="1" gridSize="10" guides="1" tooltips="1" connect="1" arrows="1" fold="1" page="1" pageScale="1" pageWidth="827" pageHeight="1169" background="#cafeab" math="0" shadow="0">
      <root>
        <mxCell id="0" />
        <mxCell id="1" parent="0" />
        <mxCell id="HrlBCg0L3fc_F2zYtulu-41" style="edgeStyle=orthogonalEdgeStyle;rounded=0;orthogonalLoop=1;jettySize=auto;html=1;exitX=1;exitY=0.5;exitDx=0;exitDy=0;entryX=0;entryY=0.5;entryDx=0;entryDy=0;" edge="1" parent="1" source="5kBc1PmtwXuqb3jVYr31-1" target="HrlBCg0L3fc_F2zYtulu-29">
          <mxGeometry relative="1" as="geometry" />
        </mxCell>
        <mxCell id="5kBc1PmtwXuqb3jVYr31-1" value="&lt;font style=&quot;font-size: 12px;&quot;&gt;1&lt;/font&gt;" style="ellipse;whiteSpace=wrap;html=1;aspect=fixed;" parent="1" vertex="1">
          <mxGeometry x="200" y="160" width="40" height="40" as="geometry" />
        </mxCell>
        <mxCell id="HrlBCg0L3fc_F2zYtulu-39" style="edgeStyle=orthogonalEdgeStyle;rounded=0;orthogonalLoop=1;jettySize=auto;html=1;exitX=0.5;exitY=0;exitDx=0;exitDy=0;entryX=0.5;entryY=0;entryDx=0;entryDy=0;" edge="1" parent="1" source="HrlBCg0L3fc_F2zYtulu-29" target="HrlBCg0L3fc_F2zYtulu-30">
          <mxGeometry relative="1" as="geometry" />
        </mxCell>
        <mxCell id="HrlBCg0L3fc_F2zYtulu-29" value="2" style="ellipse;whiteSpace=wrap;html=1;aspect=fixed;" vertex="1" parent="1">
          <mxGeometry x="280" y="160" width="40" height="40" as="geometry" />
        </mxCell>
        <mxCell id="HrlBCg0L3fc_F2zYtulu-34" style="edgeStyle=orthogonalEdgeStyle;rounded=0;orthogonalLoop=1;jettySize=auto;html=1;exitX=0.5;exitY=1;exitDx=0;exitDy=0;" edge="1" parent="1" source="HrlBCg0L3fc_F2zYtulu-30" target="HrlBCg0L3fc_F2zYtulu-31">
          <mxGeometry relative="1" as="geometry" />
        </mxCell>
        <mxCell id="HrlBCg0L3fc_F2zYtulu-30" value="3" style="ellipse;whiteSpace=wrap;html=1;aspect=fixed;" vertex="1" parent="1">
          <mxGeometry x="360" y="160" width="40" height="40" as="geometry" />
        </mxCell>
        <mxCell id="HrlBCg0L3fc_F2zYtulu-32" style="edgeStyle=orthogonalEdgeStyle;rounded=0;orthogonalLoop=1;jettySize=auto;html=1;exitX=1;exitY=0.5;exitDx=0;exitDy=0;entryX=1;entryY=0.5;entryDx=0;entryDy=0;" edge="1" parent="1" source="HrlBCg0L3fc_F2zYtulu-31" target="HrlBCg0L3fc_F2zYtulu-30">
          <mxGeometry relative="1" as="geometry" />
        </mxCell>
        <mxCell id="HrlBCg0L3fc_F2zYtulu-35" style="edgeStyle=orthogonalEdgeStyle;rounded=0;orthogonalLoop=1;jettySize=auto;html=1;exitX=0.5;exitY=1;exitDx=0;exitDy=0;" edge="1" parent="1" source="HrlBCg0L3fc_F2zYtulu-31" target="HrlBCg0L3fc_F2zYtulu-33">
          <mxGeometry relative="1" as="geometry" />
        </mxCell>
        <mxCell id="HrlBCg0L3fc_F2zYtulu-31" value="4" style="ellipse;whiteSpace=wrap;html=1;aspect=fixed;" vertex="1" parent="1">
          <mxGeometry x="360" y="240" width="40" height="40" as="geometry" />
        </mxCell>
        <mxCell id="HrlBCg0L3fc_F2zYtulu-36" style="edgeStyle=orthogonalEdgeStyle;rounded=0;orthogonalLoop=1;jettySize=auto;html=1;exitX=0;exitY=0.5;exitDx=0;exitDy=0;entryX=0;entryY=0.5;entryDx=0;entryDy=0;" edge="1" parent="1" source="HrlBCg0L3fc_F2zYtulu-33" target="HrlBCg0L3fc_F2zYtulu-30">
          <mxGeometry relative="1" as="geometry" />
        </mxCell>
        <mxCell id="HrlBCg0L3fc_F2zYtulu-33" value="5" style="ellipse;whiteSpace=wrap;html=1;aspect=fixed;" vertex="1" parent="1">
          <mxGeometry x="360" y="320" width="40" height="40" as="geometry" />
        </mxCell>
      </root>
    </mxGraphModel>
  </diagram>
</mxfile>
